<svg width="12" height="12" viewBox="0 0 12 12" fill="none" xmlns="http://www.w3.org/2000/svg">
<g style="mix-blend-mode:plus-darker">
<path fill-rule="evenodd" clip-rule="evenodd" d="M6 12C2.68629 12 0 9.31371 0 6C0 2.68629 2.68629 0 6 0C9.31371 0 12 2.68629 12 6C12 9.31371 9.31371 12 6 12ZM8.14641 5.26778C8.4614 4.95272 9.00007 5.17585 9 5.62137L8.99965 8.00035C8.99965 8.55264 8.55193 9.00035 7.99965 9.00035L5.62185 9C5.17646 8.99993 4.95342 8.46146 5.26833 8.14649L8.14641 5.26778ZM2.99965 4.00035C2.99965 3.44807 3.44736 3.00035 3.99965 3.00035L6.37945 3C6.82499 2.99993 7.04811 3.53865 6.733 3.85363L3.85348 6.7319C3.53849 7.04675 3.00007 6.8237 3 6.37834L2.99965 4.00035Z" fill="black" fill-opacity="0.5"/>
</g>
</svg>
