<svg width="570" height="400" fill="none" xmlns="http://www.w3.org/2000/svg"><g clip-path="url(#a)"><path d="M422.632 206.146c0 113.727-69.207 106.389-182.933 106.389-25.279 0-72.469 94.968-94.838 86.635h-.007c-.824-.302-1.641-.618-2.458-.94a12.881 12.881 0 0 1-.693-.268 152.14 152.14 0 0 1-3.83-1.538 210.277 210.277 0 0 1-7.756-3.404 206.035 206.035 0 0 1-38.128-23.028 206.736 206.736 0 0 1-15.43-12.993 203.515 203.515 0 0 1-11.744-11.84 185.897 185.897 0 0 1-3.473-3.892 93.064 93.064 0 0 1-1.366-1.585 203.487 203.487 0 0 1-9.273-11.703 206.19 206.19 0 0 1-19.528-32.418c-13.055-27.043-20.371-57.374-20.371-89.415C10.804 92.42 102.99.232 216.718.232c113.726 0 205.914 92.188 205.914 205.914zM563.156 322.887c-.13-1.489-3.699-1.678-3.74-2.993-.04-1.309 3.489-1.577 6.821-4.465.6-.521 4.387-3.802 3.674-5.719-1.35-3.634-17.674.831-20.129-4.38-.539-1.144-.467-2.875-2.023-6.491-.62-1.438-1.062-2.166-1.76-2.31-.99-.204-1.629.945-3.696 2.816-3.1 2.805-3.84 2.19-6.007 4.575-1.608 1.771-2.046 3.04-2.882 2.926-1.183-.161-1.071-2.806-2.464-3.234-1.42-.437-3.448 1.73-4.62 3.519-2.199 3.357-2.02 6.357-2.487 9.196-.507 3.085-2.014 7.423-6.645 12.363l-42.695 42.359c9.043-8.556 34.45-31.714 44.455-40.049 2.888-2.406 5.944-4.786 9.724-4.487 3.64.288 7.513 3.024 13.507 4.313.701.151 2.655.545 3.366-.373.589-.76-.208-1.725.331-2.442.722-.962 2.743-.007 5.808-.044 2.161-.026 3.743-.532 5.104-.967.41-.131 6.531-2.131 6.358-4.113z" fill="#F2F2F2"/><path d="M478.899 315.473c-.769-.366-1.891 1.331-2.548.972-.654-.358.232-2.167-.224-4.636-.082-.445-.6-3.25-1.747-3.454-2.173-.385-4.691 8.915-7.957 8.616-.717-.065-1.546-.6-3.769-.879-.885-.111-1.37-.104-1.642.197-.386.427-.006 1.072.315 2.626.483 2.331-.032 2.517.513 4.268.405 1.301.902 1.882.604 2.259-.42.534-1.686-.284-2.298.276-.624.571-.146 2.192.394 3.283 1.014 2.048 2.537 2.826 3.796 3.874 1.368 1.139 3.062 3.13 4.151 6.829l8.471 33.177c-1.59-6.908-5.626-26.059-6.83-33.374-.347-2.112-.634-4.299.604-6.068 1.191-1.703 3.651-2.815 6.014-5.385.276-.3 1.034-1.145.788-1.76-.203-.508-.907-.395-1.103-.866-.264-.633.788-1.348 1.654-2.863.611-1.069.819-1.991.998-2.785.054-.239.838-3.82-.184-4.307zM492.546 326.265l1.522-4.347.361-.211c1.672-.976 2.849-2.148 3.5-3.486.103-.212.196-.43.29-.652.374-.879.839-1.973 1.996-2.951.647-.545 2.299-1.732 3.524-.898.331.221.522.514.634.803l.164-.102c.713-.43 1.168-.542 1.606-.65a5.884 5.884 0 0 0 1.309-.467c.273-.131.497-.254.685-.357.57-.312 1.29-.665 2.071-.276.822.444.928 1.35.998 1.951.126 1.071.078 1.776.045 2.243a3.48 3.48 0 0 0-.016.429c.079.529 2.46 1.215 3.355 1.479 2.012.585 3.754 1.091 3.853 2.586.072 1.069-.816 2.01-2.714 2.871a7.479 7.479 0 0 1-1.637.512c.21.317.343.712.247 1.185-.23 1.121-1.571 1.709-3.987 1.754-.601.013-1.408.026-2.395-.254a8.964 8.964 0 0 1-1.195-.45 1.503 1.503 0 0 1-.462.53c-.643.463-1.498.42-2.535-.167-1.149-.629-2.012-1.321-2.773-1.93-.666-.531-1.24-.986-1.762-1.195-.975-.376-2.059.027-3.376.593l-3.308 1.457zM506.5 302.739l-4.591-.37-.296-.296c-1.368-1.37-2.801-2.211-4.259-2.501-.232-.046-.466-.08-.705-.115-.945-.139-2.121-.311-3.361-1.182-.691-.488-2.258-1.785-1.762-3.181.13-.377.365-.635.616-.817l-.141-.133a5.047 5.047 0 0 1-1.036-1.389c-.166-.305-.336-.619-.783-1.147-.196-.232-.372-.417-.519-.573-.446-.472-.97-1.078-.793-1.933.221-.907 1.071-1.239 1.634-1.46a10.982 10.982 0 0 1 2.159-.613c.168-.031.357-.068.419-.093.491-.211.551-2.688.579-3.62.056-2.095.104-3.908 1.524-4.383 1.017-.34 2.152.28 3.466 1.897.408.503.695 1.01.911 1.453a1.53 1.53 0 0 1 1.084-.539c1.142-.062 2.051 1.086 2.707 3.412.165.578.383 1.355.361 2.381-.01.483-.072.908-.132 1.27.207.048.423.14.631.312.611.505.786 1.343.481 2.495-.317 1.271-.767 2.281-1.163 3.172-.345.778-.64 1.449-.71 2.008-.116 1.037.549 1.984 1.431 3.114l2.248 2.831zM510.2 289.557l1.522-4.347.362-.211c1.672-.976 2.849-2.148 3.499-3.486.104-.212.196-.43.291-.652.374-.879.838-1.973 1.995-2.951.647-.545 2.3-1.732 3.524-.898.332.221.522.514.634.803l.165-.102c.713-.43 1.168-.542 1.606-.65a5.898 5.898 0 0 0 1.308-.467c.274-.131.497-.254.686-.357.57-.312 1.289-.665 2.071-.276.821.444.927 1.35.998 1.951.126 1.071.077 1.776.045 2.243a3.48 3.48 0 0 0-.016.429c.079.529 2.46 1.215 3.354 1.479 2.013.585 3.754 1.091 3.853 2.586.072 1.069-.816 2.01-2.713 2.871a7.479 7.479 0 0 1-1.637.512c.209.317.343.712.246 1.185-.229 1.121-1.571 1.709-3.987 1.754-.6.013-1.408.026-2.394-.254a8.911 8.911 0 0 1-1.195-.45 1.506 1.506 0 0 1-.463.53c-.643.463-1.498.42-2.535-.167-1.149-.629-2.011-1.321-2.773-1.93-.665-.53-1.24-.986-1.762-1.195-.974-.376-2.058.027-3.375.593l-3.309 1.457z" fill="#F2F2F2"/><path d="m475.916 371.646-.604-.958-1.063-.369c.029-.101.078-.343.157-.719.436-2.061 1.76-8.334 4.864-17.724a184.191 184.191 0 0 1 7.721-19.504c2.962-6.398 5.576-11.063 7.676-14.812a523.021 523.021 0 0 1 4.658-8.098c4.053-6.948 7.88-13.511 11.109-21.261.721-1.73 2.222-5.332 1.967-10.054-.147-2.739-.861-5.452-2.123-8.059l2.039-.986c1.391 2.881 2.18 5.884 2.344 8.925.282 5.236-1.353 9.16-2.138 11.046-3.286 7.887-7.151 14.513-11.243 21.527-1.511 2.592-3.061 5.249-4.639 8.066-2.081 3.715-4.672 8.339-7.595 14.655a181.904 181.904 0 0 0-7.628 19.264c-3.064 9.272-4.368 15.452-4.797 17.482-.229 1.084-.277 1.311-.705 1.579z" fill="#F2F2F2"/><path d="M504.98 271.529a3.712 3.712 0 0 1-.25-.13c-1.692-.929-2.8-2.742-3.295-5.388-.231-1.244-.071-2.459.249-4.882.048-.374.318-2.26 1.087-4.664.501-1.571.823-2.174 1.376-2.577.615-.45 1.342-.62 2.068-.622.068-.207.186-.398.369-.563.757-.683 1.627-.127 2.101.167.238.154.533.347.883.493.548.232.912.211 1.463.182.528-.029 1.183-.064 2.029.149 1.67.413 2.734 1.455 3.085 1.798 1.853 1.796 2.115 4.033 2.419 6.624.059.519.223 2.383-.164 4.644-.279 1.631-.644 2.241-.995 2.655-.719.854-1.58 1.126-3.677 1.633-2.191.533-3.289.799-4.155.866-2.014.152-3.279.247-4.593-.385z" fill="#F2F2F2"/><path d="M461.419 381.604H351.384c-16.504 0-29.931-13.428-29.931-29.932V60.79c0-16.504 13.427-29.93 29.931-29.93h110.035c16.504 0 29.931 13.426 29.931 29.93 2.048 116.81 5.541 247.617 0 290.882 0 16.504-13.427 29.932-29.931 29.932z" fill="#3F3D56"/><path d="M492.885 137.855c-.699 0-1.267.568-1.267 1.267v40.519a1.268 1.268 0 0 0 2.533 0v-40.519c0-.699-.568-1.267-1.266-1.267z" fill="#3F3D56"/><path d="m481.006 64.442 7.495 287.225c0 14.366-11.18 26.116-25.318 27.028h-.006a21.27 21.27 0 0 1-.633.032c-.374.019-.747.025-1.127.025 0 0-1.393-.101-3.938-.291-2.571-.19-6.312-.475-10.978-.849-1.4-.107-2.875-.228-4.432-.354a1941.87 1941.87 0 0 1-10.162-.849c-1.456-.12-2.963-.253-4.501-.386a2467.54 2467.54 0 0 1-25.958-2.368c-1.57-.145-3.152-.297-4.748-.456-.418-.044-72.397-18.138-72.397-21.532V60.791c0-14.96 12.124-27.085 27.084-27.085h16.17c2.583 0 4.66 2.013 4.881 4.59.019.171.038.342.07.513.468 2.59 2.843 4.394 5.476 4.394h56.836c2.634 0 5.008-1.805 5.476-4.394.032-.171.051-.342.07-.513.221-2.577 2.298-4.59 4.881-4.59h16.17c14.96 0 19.589 15.776 19.589 30.736z" fill="#fff"/><path d="M320.82 107.466c-.698 0-1.266.568-1.266 1.266v10.13a1.268 1.268 0 0 0 2.533 0v-10.13c0-.698-.568-1.266-1.267-1.266zM320.82 137.855c-.698 0-1.266.568-1.266 1.267v19.626a1.268 1.268 0 0 0 2.533 0v-19.626c0-.699-.568-1.267-1.267-1.267zM320.82 165.712c-.698 0-1.266.568-1.266 1.266v19.627a1.268 1.268 0 0 0 2.533 0v-19.627c0-.698-.568-1.266-1.267-1.266z" fill="#3F3D56"/><path d="M367.141 38.14h-24.265a.213.213 0 0 0-.213.213v2.74c0 .118.095.213.213.213h24.265a.213.213 0 0 0 .213-.213v-2.74a.213.213 0 0 0-.213-.212zM449.248 41.306a2.533 2.533 0 1 0 0-5.065 2.533 2.533 0 0 0 0 5.065zM456.212 41.306a2.533 2.533 0 1 0 0-5.065 2.533 2.533 0 0 0 0 5.065zM463.177 41.306a2.532 2.532 0 1 0 0-5.065 2.532 2.532 0 0 0 0 5.065z" fill="#E6E6E6"/><path d="M403.744 183.643c19.901 0 36.034-16.134 36.034-36.035 0-19.901-16.133-36.034-36.034-36.034s-36.034 16.133-36.034 36.034 16.133 36.035 36.034 36.035z" fill="hsla(29, 100%, 50%, 1)"/><path d="M405.904 283.394H245.486c-6.458 0-11.712-5.254-11.712-11.712V150.38c0-6.458 5.254-11.712 11.712-11.712h160.418c6.458 0 11.711 5.254 11.711 11.712v121.302c0 6.458-5.253 11.712-11.711 11.712z" fill="#fff"/><path d="M405.904 283.394H245.486c-6.458 0-11.712-5.254-11.712-11.712V150.38c0-6.458 5.254-11.712 11.712-11.712h160.418c6.458 0 11.711 5.254 11.711 11.712v121.302c0 6.458-5.253 11.712-11.711 11.712zm-160.418-142.77c-5.38 0-9.756 4.376-9.756 9.756v121.302c0 5.38 4.376 9.756 9.756 9.756h160.418c5.379 0 9.755-4.376 9.755-9.756V150.38c0-5.38-4.376-9.756-9.755-9.756H245.486z" fill="#3F3D56"/><path d="M388.279 153.336a2.933 2.933 0 1 0 0-5.866 2.933 2.933 0 0 0 0 5.866zM396.102 153.336a2.933 2.933 0 1 0 0-5.866 2.933 2.933 0 0 0 0 5.866zM403.925 153.336a2.933 2.933 0 1 0 0-5.866 2.933 2.933 0 0 0 0 5.866z" fill="#3F3D56"/><path d="M250.398 197.83c-.809 0-1.467.658-1.467 1.467 0 .394.153.759.429 1.028.279.286.644.439 1.038.439h151.571c.809 0 1.467-.658 1.467-1.467a1.42 1.42 0 0 0-.429-1.029 1.434 1.434 0 0 0-1.038-.438H250.398z" fill="#E6E6E6"/><path d="M374.589 197.341v3.911H250.398a1.911 1.911 0 0 1-1.379-.577 1.91 1.91 0 0 1-.577-1.378c0-1.076.88-1.956 1.956-1.956h124.191z" fill="hsla(29, 100%, 50%, 1)"/><path d="M399.524 190.007h-19.557a3.917 3.917 0 0 1-3.912-3.912 3.916 3.916 0 0 1 3.912-3.911h19.557a3.916 3.916 0 0 1 3.912 3.911 3.917 3.917 0 0 1-3.912 3.912zM271.422 169.471h-19.557a3.916 3.916 0 0 1-3.912-3.911 3.917 3.917 0 0 1 3.912-3.912h19.557a3.917 3.917 0 0 1 3.912 3.912 3.916 3.916 0 0 1-3.912 3.911zM250.398 241.834c-.809 0-1.467.658-1.467 1.467 0 .394.153.759.429 1.028.279.286.644.439 1.038.439h151.571c.809 0 1.467-.658 1.467-1.467a1.42 1.42 0 0 0-.429-1.029 1.434 1.434 0 0 0-1.038-.438H250.398z" fill="#E6E6E6"/><path d="M299.292 241.345v3.911h-48.894a1.911 1.911 0 0 1-1.379-.577 1.911 1.911 0 0 1-.577-1.379c0-1.075.88-1.955 1.956-1.955h48.894z" fill="hsla(29, 100%, 50%, 1)"/><path d="M399.524 234.012h-19.557a3.917 3.917 0 0 1-3.912-3.912 3.917 3.917 0 0 1 3.912-3.912h19.557a3.917 3.917 0 0 1 3.912 3.912 3.917 3.917 0 0 1-3.912 3.912z" fill="#E6E6E6"/><path d="M143.189 203.815c3.992-5.687 4.293-12.356.673-14.896-3.62-2.539-9.789.013-13.781 5.702a17.382 17.382 0 0 0-3.1 7.605l-16.607 24.31 11.574 7.55 15.143-24.767a17.38 17.38 0 0 0 6.098-5.504z" fill="#A0616A"/><path d="M42.692 233.891c11.038 23.605 30.556 61.541 43.735 65.647 4.542 1.419 9.137-1.874 13.504-7.738 12.645-16.954 23.403-55.417 25.584-63.545.266-.99.403-1.53.403-1.53l-10.953-6.911-.95-.599-16.609 22.837-5.115 7.029s.24-3.502.807-9.138l-26.19-12.827s-14.382 2.395-24.216 6.775z" fill="#3F3D56"/><path d="M98.148 229.068c15.456 0 27.985-12.53 27.985-27.985 0-15.456-12.529-27.985-27.985-27.985s-27.985 12.529-27.985 27.985c0 15.455 12.53 27.985 27.985 27.985z" fill="#A0616A"/><path d="M82.798 381.603H61.802a238.65 238.65 0 0 1-4.627-4.928 247.25 247.25 0 0 1-4.598-5.155c13.727-2.834 25.066-4.804 25.066-4.804s.31.926.886 2.594a990.96 990.96 0 0 0 4.269 12.293z" fill="#2F2E41"/><path d="m106.934 226.139-11.143 19.604-31.81-11.794 12.365-24.731 30.588 16.921z" fill="#A0616A"/><path d="m126.458 200.106 5.858-.65 1.301-3.905h6.193l.315 1.952 9.763 1.953-1.961 28.024-4.548 4.516-12.365-1.301-1.302-22.128h-3.254v-8.461z" fill="#2F2E41"/><path d="m146.634 207.916 54.668-1.952 1.301 25.382-57.922-3.254 1.953-20.176zM108.886 198.154l1.953 9.111 3.513-9.111 4.447-4.02 1.802-7.044s11.064 10.413 9.762 2.603c-1.301-7.809-2.603-14.317-9.111-14.968-6.508-.651-11.064.922-14.318-.515-3.254-1.438-3.254-11.851-9.111-7.946-5.858 3.905-7.16 6.508-11.715 7.159-4.556.651-20.826-5.206-20.175 8.461.65 13.667 6.508 17.572 4.555 27.334-1.952 9.762 16.27 11.064 16.27 11.064s6.509 0 6.509-9.112c0-9.111 15.619-13.016 15.619-13.016z" fill="#2F2E41"/><path d="M100.445 313.885v.007l-11.394 15.547-.165 8.923-.5 26.727-9.857 4.222-3.473 12.293H59.33c-.83-.954-.982-.707-.852 0H0c2.238-7.811 6.226-25.41 10.11-43.242 5.402-24.806 10.591-50.072 10.591-50.072s8.463-46.207 17.572-52.062c1.29-.837 2.793-1.606 4.42-2.333 2.457-1.098 5.203-2.066 7.928-2.911 1.407-.432 2.807-.83 4.173-1.194.906-.24 1.798-.467 2.65-.679.432-.103.85-.206 1.262-.302a96.096 96.096 0 0 1 2.347-.536c.268-.062.529-.116.783-.171.192-.042.378-.076.563-.117.212-.048.419-.089.618-.13.199-.042.398-.083.583-.117a35.8 35.8 0 0 0 .618-.124c.199-.041.384-.075.563-.109.178-.035.35-.069.507-.097.158-.027.303-.054.44-.082.206-.041.391-.075.542-.103.103-.014.192-.034.275-.048l.363-.062.385.192h.007l25.8 12.644 4.297 2.107h.007l.378.178 1.016.501.082 3.679 1.05 45.384.515 22.087z" fill="#3F3D56"/><path d="M151.415 226.427c-.686-6.914-4.809-12.165-9.209-11.728-4.4.437-7.41 6.396-6.724 13.312a17.389 17.389 0 0 0 2.612 7.786l3.275 29.259 13.698-1.83-4.683-28.649a17.4 17.4 0 0 0 1.031-8.15z" fill="#A0616A"/><path d="M93.267 248.266s20.175-9.762 27.985 9.112c7.81 18.873 16.433 34.9 16.433 34.9l2.44-36.853H154.2s24.974 77.447 5.45 82.653c-19.525 5.207-89.162-43.604-89.162-43.604l22.779-46.208z" fill="#3F3D56"/></g><defs><clipPath id="a"><path fill="#fff" transform="translate(0 .232)" d="M0 0h570v399.456H0z"/></clipPath></defs></svg>