<svg width="570" height="420" fill="none" xmlns="http://www.w3.org/2000/svg"><g clip-path="url(#a)"><path d="M546.344 419.232v-27.815s10.84 19.72 0 27.815z" fill="#3C3C43" fill-opacity=".18"/><path d="m547.014 419.227-20.491-18.81s21.858 5.351 20.491 18.81z" fill="#DCDCDD"/><path d="M458.495 345.759a3.505 3.505 0 0 1 1.008-2.783 3.488 3.488 0 0 1 2.78-1.013l3.694-7.087 4.854 1.194-5.357 9.935a3.516 3.516 0 0 1-6.979-.246zM480.544 414.799h-4.096L474.499 399h6.046l-.001 15.799z" fill="#FFB7B7"/><path d="M481.588 418.769h-13.207v-.167a5.14 5.14 0 0 1 5.141-5.141h8.067l-.001 5.308z" fill="#2F2E41"/><path d="m513.487 411.74-3.951 1.077-6.038-14.73 5.833-1.59 4.156 15.243z" fill="#FFB7B7"/><path d="m515.54 415.295-12.742 3.474-.044-.161a5.141 5.141 0 0 1 3.607-6.312l7.782-2.122 1.397 5.121zM473.066 346.552l-2.043 31.027 4.389 34.811 7.189-2.194.303-31.103 5.751-17.935 17.027 47.903 7.795-2.876-6.433-31.103-3.632-29.211-30.346.681z" fill="#2F2E41"/><path d="m492.93 292.067-12.106 1.786-4.362 4.313-1.354 15.498.841 13.728-3.506 24.208s8.817-4.895 15.649 1.232c6.833 6.127 16.394 1.083 16.591-2.993l-11.753-57.772z" fill="#CBCBCB"/><path d="M486.782 311.505v-.018l6.014-19.603.078-.006c.428-.027 10.511-.622 12.767 4.357l.011.024-.686 20.372.944 31.906-18.649 4.039-.135.03-.344-41.101zM480.117 310.15l1.104-16.619c-7.847.488-7.729 6.052-7.72 6.294l-.085 24.858-1.572 26.594 5.714-.428 2.559-40.699z" fill="#2F2E41"/><path d="m462.424 340.389 6.967-16.167 4.862-8.929 2.538 16.107-8.813 13.22-5.554-4.231z" fill="#2F2E41"/><path d="M491.214 334.44a3.503 3.503 0 0 1 3.245-2.763 3.486 3.486 0 0 1 1.494.254l5.62-5.682 4.286 2.573-8.049 7.912a3.52 3.52 0 0 1-4.317 1.783 3.518 3.518 0 0 1-2.279-4.077z" fill="#FFB7B7"/><path d="m495.94 329.856 11.459-12.57-7.585-10.824.781-5.291 4.47-5.523.087.113c.477.617 11.675 15.165 11.996 20.672.323 5.528-15.773 19.511-16.458 20.103l-.095.083-4.655-6.763z" fill="#2F2E41"/><path d="M485.944 290.706a8.145 8.145 0 1 0 0-16.29 8.145 8.145 0 0 0 0 16.29z" fill="#FFB7B7"/><path d="m493.604 276.051.395-.795-1.987-.987s-2.191-3.566-6.157-2.564c-3.966 1.002-5.75 1.602-5.75 1.602l-1.982.997.994.99-1.784.599 1.192.593-1.387.797.747 4.086s1.24-3.099 3.624-1.915c2.384 1.185 6.745-.612 6.745-.612l3.788 7.332s.782-2.57 2.175-1.885c0 0 3.56-5.669-.613-8.238z" fill="#2F2E41"/><path d="M401.45 322.16 277.6 356.317l-40.783-147.881 123.85-34.156 40.783 147.88z" fill="#fff"/><path d="M401.45 322.16 277.6 356.317l-40.783-147.881 123.85-34.156 40.783 147.88zm-122.268 31.369 119.481-32.951-39.578-143.51-119.481 32.951 39.578 143.51z" fill="#F1F1F1"/><path d="m333.714 240.528-31.045 8.562a1.713 1.713 0 0 1-2.107-1.196L292 216.849a1.718 1.718 0 0 1 1.196-2.107l31.046-8.562a1.72 1.72 0 0 1 2.107 1.196l8.561 31.046a1.71 1.71 0 0 1-1.196 2.106zm-40.336-25.125a1.032 1.032 0 0 0-.717 1.264l8.562 31.045a1.026 1.026 0 0 0 1.264.718l31.045-8.562a1.027 1.027 0 0 0 .718-1.264l-8.562-31.046a1.03 1.03 0 0 0-1.264-.717l-31.046 8.562z" fill="#E5E5E5"/><path d="m325.845 246.786-31.046 8.562a1.546 1.546 0 0 1-1.896-1.077l-8.562-31.045a1.546 1.546 0 0 1 1.077-1.896l31.045-8.562a1.545 1.545 0 0 1 1.896 1.076l8.562 31.046a1.542 1.542 0 0 1-1.076 1.896z" fill="#007AFF"/><path d="m361.809 251.024-86.635 23.893.923 3.348 86.635-23.893-.923-3.348zM364.216 259.753l-86.635 23.893.923 3.347 86.636-23.892-.924-3.348zM366.624 268.482l-86.636 23.893.924 3.348 86.635-23.893-.923-3.348zM370.861 283.844l-86.636 23.893.923 3.348 86.636-23.893-.923-3.348zM373.268 292.574l-86.635 23.893.923 3.348 86.635-23.893-.923-3.348zM375.675 301.302l-86.635 23.893.923 3.348 86.636-23.893-.924-3.348z" fill="#F1F1F1"/><path d="M441.095 355.823H312.622V202.422h128.473v153.401z" fill="#fff"/><path d="M441.095 355.823H312.622V202.422h128.473v153.401zm-126.207-2.267h123.941V204.688H314.888v148.868z" fill="#E5E5E5"/><path d="M417.705 268.367h-73.454v3.473h73.454v-3.473zM417.705 277.396h-73.454v3.473h73.454v-3.473zM417.705 286.426h-73.454v3.473h73.454v-3.473zM338.279 272.879a2.267 2.267 0 1 0 0-4.534 2.267 2.267 0 0 0 0 4.534z" fill="#007AFF"/><path d="M417.705 229.459h-73.454v3.473h73.454v-3.473zM417.705 238.488h-73.454v3.473h73.454v-3.473zM417.705 247.518h-73.454v3.472h73.454v-3.472zM338.279 233.593a2.267 2.267 0 1 0 0-4.534 2.267 2.267 0 0 0 0 4.534zM417.705 307.652h-73.454v3.473h73.454v-3.473zM417.705 316.682h-73.454v3.473h73.454v-3.473zM417.705 325.712h-73.454v3.473h73.454v-3.473zM338.279 311.787a2.267 2.267 0 1 0 0-4.534 2.267 2.267 0 0 0 0 4.534z" fill="#E5E5E5"/><path d="M435.097 369.032c14.503 0 26.26-11.757 26.26-26.259 0-14.503-11.757-26.259-26.26-26.259-14.502 0-26.259 11.756-26.259 26.259 0 14.502 11.757 26.259 26.259 26.259z" fill="#007AFF"/><path d="M442.373 341.098v-5.024a7.276 7.276 0 1 0-14.551 0v5.024a3.784 3.784 0 0 0-3.613 3.777v11.873h21.776v-11.873a3.782 3.782 0 0 0-3.612-3.777zm-7.276-9.738a4.717 4.717 0 0 1 4.714 4.714v5.015h-9.427v-5.015a4.717 4.717 0 0 1 4.713-4.714z" fill="#fff"/><path d="M437.055 346.961a1.956 1.956 0 1 0-3.059 1.618v4.254h2.202v-4.254a1.958 1.958 0 0 0 .857-1.618z" fill="#007AFF"/><path d="M569.616 419.076H423.119a.385.385 0 0 1 0-.769h146.497a.384.384 0 0 1 0 .769z" fill="#CBCBCB"/></g><g clip-path="url(#b)"><path d="M234.025 164.39c2.248 3.973.342 17.393.342 17.393s-12.482-5.284-14.729-9.256a8.265 8.265 0 0 1 14.387-8.137z" fill="#3C3C43" fill-opacity=".18"/><path d="m234.548 181.766-.265.056c-2.554-12.135-11.473-20.363-11.563-20.445l.183-.2c.09.082 9.073 8.366 11.645 20.589z" fill="#fff"/><path d="M254.45 168.914c-3.051 5.533-20.248 13.029-20.248 13.029s-2.835-18.544.214-24.075a11.44 11.44 0 0 1 15.54-4.494 11.437 11.437 0 0 1 4.494 15.54z" fill="#DCDCDD"/><path d="m234.354 182.144-.258-.272c12.444-11.818 15.665-28.301 15.696-28.466l.369.07c-.031.166-3.272 16.764-15.807 28.668z" fill="#fff"/><path d="M60.256 127.016a23.523 23.523 0 0 1-5.833-.755l-.375-.103-.349-.175c-12.592-6.313-23.215-14.653-31.574-24.786A93.828 93.828 0 0 1 6.182 72.888 108.958 108.958 0 0 1 .021 34.505c.005-.274.01-.486.01-.631 0-6.35 3.524-11.92 8.977-14.192 4.174-1.74 42.073-17.306 44.81-18.43 5.158-2.584 10.66-.427 11.54-.05 1.974.807 37.009 15.137 44.58 18.742 7.803 3.715 9.885 10.39 9.885 13.748 0 15.204-2.634 29.413-7.827 42.233a97.797 97.797 0 0 1-17.573 28.322c-14.346 16.144-28.696 21.867-28.835 21.918-1.714.59-3.519.878-5.332.851zm-3.375-8.359c1.244.279 4.108.697 5.975.016 2.372-.865 14.382-7.093 25.606-19.723 15.507-17.45 23.375-39.388 23.386-65.202-.027-.523-.399-4.253-5.338-6.605-7.424-3.535-43.84-18.425-44.207-18.575l-.1-.043c-.764-.32-3.192-.993-4.867-.116l-.335.156c-.406.167-40.635 16.69-44.926 18.478-3.001 1.25-4.07 4.348-4.07 6.83 0 .182-.005.446-.012.787-.343 17.663 3.745 61.126 48.888 83.997z" fill="#3F3D56"/><path d="M55.486 4.877S14.891 21.55 10.542 23.363c-4.35 1.812-6.525 6.161-6.525 10.51 0 4.35-3.262 61.105 51.47 88.546 0 0 4.967 1.374 8.735 0 3.77-1.374 51.613-24.572 51.613-88.726 0 0 0-6.525-7.611-10.15-7.612-3.624-44.413-18.666-44.413-18.666s-4.519-1.993-8.325 0z" fill="#007AFF"/><path opacity=".1" d="M59.836 17.926v88.944S18.878 87.155 19.24 35.324l40.595-17.398z" fill="#000"/><path d="M60.37 81.852 47.323 65.076l7.587-5.901 6.178 7.943 20.87-22.031 6.978 6.612L60.37 81.852z" fill="#fff"/><path d="M255.982 182.739H136.764a.314.314 0 0 1-.313-.313.314.314 0 0 1 .313-.313h119.218a.312.312 0 1 1 0 .626z" fill="#CACACA"/><path d="M171.226 177.807h4.839l2.303-18.666h-7.143l.001 18.666z" fill="#FFB8B8"/><path d="M169.991 176.227h9.531a6.074 6.074 0 0 1 6.074 6.073v.197l-15.604.001-.001-6.271z" fill="#2F2E41"/><path d="M187.497 177.807h4.839l2.303-18.666h-7.143l.001 18.666z" fill="#FFB8B8"/><path d="M186.263 176.227H195.794a6.074 6.074 0 0 1 6.073 6.073v.197l-15.604.001v-6.271zM178.832 112.257l1.161 59.218-9.391-.582-6.515-37.719-2.057-25.718 16.802 4.801z" fill="#2F2E41"/><path d="m194.948 102.313 1.316 70.101-10.952-.313-2.365-41.671-4.115-15.087-16.802-7.887 2.743-18.86 24.689-.342 5.486 14.059z" fill="#2F2E41"/><path d="M176.067 39.562a8.398 8.398 0 1 0 0-16.797 8.398 8.398 0 0 0 0 16.797z" fill="#FFB8B8"/><path d="m183.032 43.1 1.286 1.948 3.43 9.601-2.744 37.376-16.116.343-2.057-42.862 4.31-5.387 11.891-1.02z" fill="#CCC"/><path d="m160.315 50.534-2.743-.343s-.685.343-1.028 2.744c-.343 2.4-4.458 23.66-4.458 23.66l5.486 26.06 6.172-8.23-3.771-14.401 3.771-14.402-3.429-15.088zM195.291 50.192h2.058l5.143 27.775-4.8 21.603-4.801-7.887 1.371-8.573-.685-7.543-2.4-4.458 4.114-20.917zM181.029 31.164l-1.527-.382s-1.145-6.49-3.817-5.726c-2.672.763-9.543 1.527-9.543-1.527s6.489-5.726 10.306-5.344c3.818.382 8.693 1.648 9.925 7.253 1.976 8.984-4.076 11.254-4.076 11.254l.101-.328a5.09 5.09 0 0 0-1.369-5.2z" fill="#2F2E41"/><path d="m157.915 50.192 10.973-4.458 2.572-1.886 7.715 34.118 3.6-35.147 14.231 7.373-4.801 23.317-.686 8.915 2.058 7.201s7.201 5.144 4.8 10.63c-2.4 5.486-5.143 5.829-5.143 5.829s-11.659-10.973-12.344-13.716c-.686-2.743-1.715-7.544-1.715-7.544s-5.829 21.946-12.687 21.603c-6.858-.343-6.858-7.544-6.858-7.544l1.714-7.543 2.744-7.887-1.372-13.03-4.801-20.231z" fill="#2F2E41"/></g><defs><clipPath id="a"><path fill="#fff" transform="translate(236.817 174.28)" d="M0 0h333.183v244.952H0z"/></clipPath><clipPath id="b"><path fill="#fff" d="M0 0h256.295v182.739H0z"/></clipPath></defs></svg>