<svg width="570" height="285" fill="none" xmlns="http://www.w3.org/2000/svg"><g clip-path="url(#a)"><path d="M155.629 233.03c15.474 0 28.018-12.544 28.018-28.018s-12.544-28.019-28.018-28.019c-15.475 0-28.019 12.545-28.019 28.019 0 15.474 12.544 28.018 28.019 28.018z" fill="#E4E4E4"/><path opacity=".2" d="M134.941 186.298a28.023 28.023 0 0 0 10.741 34.667 28.024 28.024 0 0 0 35.946-5.013 28.026 28.026 0 0 1-29.473 16.761 28.032 28.032 0 0 1-11.317-4.121 28.03 28.03 0 0 1-11.79-31.79 28.034 28.034 0 0 1 5.893-10.504z" fill="#000"/><path d="M155.706 205.012h.076l1.386 79.437h-2.925l1.463-79.437z" fill="#3F3D56"/><path d="M98.939 180.78c31.199 0 56.49-25.292 56.49-56.491 0-31.198-25.291-56.49-56.49-56.49s-56.49 25.291-56.49 56.49 25.291 56.491 56.49 56.491z" fill="#E4E4E4"/><path opacity=".2" d="M57.228 86.559a56.496 56.496 0 0 0 94.13 59.787 56.493 56.493 0 0 1-82.239 25.484 56.495 56.495 0 0 1-11.89-85.271z" fill="#000"/><path d="M99.094 124.289h.156l2.793 160.16h-5.897l2.948-160.16z" fill="#3F3D56"/><path d="M471.382 201.551H212.454v76.757h258.928v-76.757z" fill="#F0F0F0"/><path d="M357.014 217.414h-30.191v60.894h30.191v-60.894z" fill="#CACACA"/><path d="M456.287 110.978H227.55v70.616h228.737v-70.616z" fill="#F0F0F0"/><path d="M479.476 115.327H204.36a2.3 2.3 0 0 1-2.251-2.785 2.3 2.3 0 0 1 .656-1.178l75.189-72.272V7.612a2.306 2.306 0 0 1 2.303-2.303h14.839a2.306 2.306 0 0 1 2.303 2.302v12.79l5.679-5.459a51.029 51.029 0 0 1 69.479-1.155l108.459 97.525a2.297 2.297 0 0 1 .61 2.537 2.296 2.296 0 0 1-2.15 1.478z" fill="#CACACA"/><path d="M287.932 128.888a14.577 14.577 0 0 1 10.313 4.271 14.582 14.582 0 0 1 4.271 10.313v19.701h-29.167v-19.701a14.577 14.577 0 0 1 4.271-10.313 14.588 14.588 0 0 1 10.312-4.271zM341.918 129.144a14.585 14.585 0 0 1 14.584 14.583v19.701h-29.168v-19.701a14.585 14.585 0 0 1 14.584-14.583zM395.904 129.399a14.586 14.586 0 0 1 14.584 14.584v19.701H381.32v-19.701a14.583 14.583 0 0 1 14.584-14.584zM417.396 216.646a14.586 14.586 0 0 1 14.584 14.584v19.701h-29.168V231.23a14.583 14.583 0 0 1 14.584-14.584zM273.093 216.646a14.583 14.583 0 0 1 14.584 14.584v19.701h-29.168V231.23a14.585 14.585 0 0 1 14.584-14.584z" fill="#fff"/><path d="m509.21 202.75-48.572-21.492a2.047 2.047 0 0 0-.828-.175H228.325c-.265 0-.526.051-.771.151l-52.871 21.492a2.044 2.044 0 0 0-1.238 2.289 2.052 2.052 0 0 0 2.009 1.654h13.717v70.616h-1.535v7.164H496.2v-7.164h-2.558v-70.616h14.74a2.048 2.048 0 0 0 .828-3.919zm-19.662 74.535H193.265v-70.616h296.283v70.616zM306.098 160.358h-37.355v6.141h37.355v-6.141zM360.852 160.358h-37.355v6.141h37.355v-6.141zM415.605 160.358H378.25v6.141h37.355v-6.141z" fill="#CACACA"/><path d="M436.074 248.885h-37.355v6.14h37.355v-6.14zM291.259 248.885h-37.356v6.14h37.356v-6.14z" fill="#CACACA"/><path d="M569.373 284.763H.627a.626.626 0 0 1-.627-.627.63.63 0 0 1 .627-.627h568.746a.628.628 0 1 1 0 1.254z" fill="#3F3D56"/><path d="M426.319 109.925c0 .401-.006.809-.013 1.21a53.446 53.446 0 0 1-.1 2.69 66.041 66.041 0 0 1-.489 5.199c-.038.269-.075.545-.119.821-.044.308-.088.615-.138.922a53.333 53.333 0 0 1-.339 1.956 75.088 75.088 0 0 1-.62 2.923l-.038.156c-.075.32-.151.634-.232.954-.025.093-.044.181-.075.275-.057.239-.12.477-.182.715-.088.333-.176.659-.27.991a148.936 148.936 0 0 1-.508 1.699 57.81 57.81 0 0 1-.972 2.885 79.943 79.943 0 0 1-1.172 3.01c-.201.483-.408.965-.615 1.442-.05.113-.1.226-.157.339-.219.495-.445.978-.677 1.461-.006.006-.006.018-.012.025a42.95 42.95 0 0 1-.571 1.16 37.316 37.316 0 0 1-.596 1.154l-.32.608-.037.069a56.857 56.857 0 0 1-1.254 2.22 29.405 29.405 0 0 1-.577.965 5.136 5.136 0 0 1-.207.339c-.132.213-.264.433-.401.646-.026.044-.057.088-.082.131-.238.37-.476.734-.715 1.104-.295.445-.596.884-.903 1.323l-6.81 10.898-.294-.244-.082-.075h-.006l-.27-.226-.74-.627c-.226.219-.445.439-.671.652-.088.088-.182.169-.269.257-.069.063-.132.125-.201.188a65.664 65.664 0 0 1-43.882 18.655h-.019a71.67 71.67 0 0 1-35.761-8.44 11.253 11.253 0 0 1-.721-.395 69.235 69.235 0 0 1-4.202-2.477c-.006-.006-.012-.006-.018-.013a70.22 70.22 0 0 1-4.666-3.611 68.934 68.934 0 0 1-24.411-56.304c.019-.421.044-.834.075-1.255.1-1.517.255-3.028.464-4.533.056-.42.119-.84.182-1.254h134.053a68.638 68.638 0 0 1 .64 9.412z" fill="#F0F0F0"/><path d="M425.679 100.512a67.777 67.777 0 0 0-67.026-57.7 67.78 67.78 0 0 0-67.027 57.7c-.063.414-.125.834-.182 1.255a66.136 66.136 0 0 0-.464 4.533h135.245a68.404 68.404 0 0 0-.546-5.788zM363.043 170.353h-38.838v-31.069c.716-14.199 12.852-15.345 24.255-14.583a14.575 14.575 0 0 1 13.473 9.002 14.562 14.562 0 0 1 1.11 5.581v31.069z" fill="hsla(32, 100%, 55%, 1)"/><path d="M324.202 148.263v.007c0 .006.006.006.012.006l-.012-.013zm-15.62-47.75c-.025.156-.057.313-.082.47.025-.157.057-.314.088-.47h-.006zm-.778 5.787c-.019.239-.038.477-.05.715.012-.238.031-.476.056-.715a.816.816 0 0 1 .007-.131c-.007.044-.007.088-.013.131zm16.398 41.97c0 .006.006.006.012.006l-.012-.013v.007zm-15.62-47.757c-.025.156-.057.313-.082.47.025-.157.057-.314.088-.47h-.006zm-.828 6.502c.012-.238.031-.476.056-.715a.816.816 0 0 1 .007-.131c-.007.044-.007.088-.013.131-.019.239-.038.477-.05.715zM501.479 222.37a4.179 4.179 0 0 0-.389-.364l-.006-.006-31.053-26.205-.802-.677-3.054-2.578-.765-.646-4.352-3.674-1.191-1.004-2.465-2.081-1.26-1.066-11.889-10.027-6.816-5.75-.916-.771-20.085-16.95c.308-.439.609-.878.903-1.323.239-.37.477-.734.715-1.104.025-.044.057-.087.082-.131.138-.214.269-.433.401-.646.075-.113.144-.226.207-.339.1-.157.201-.32.295-.483.094-.156.188-.319.282-.482.439-.734.853-1.474 1.254-2.22l.038-.069.319-.609c.201-.37.396-.746.584-1.122a.052.052 0 0 0 .012-.031c.195-.383.389-.772.571-1.16.006-.007.006-.019.012-.025.232-.483.458-.966.678-1.462.056-.112.106-.225.156-.338.207-.477.414-.959.615-1.442a73.61 73.61 0 0 0 1.172-3.01 75.212 75.212 0 0 0 1.023-3.048c.156-.514.307-1.022.457-1.536a63.637 63.637 0 0 0 .452-1.706c.031-.094.05-.182.075-.276.082-.319.157-.633.232-.953l.038-.157a75.016 75.016 0 0 0 .62-2.922c.12-.652.239-1.304.339-1.956.05-.307.094-.615.138-.922.044-.276.082-.552.119-.821a66.041 66.041 0 0 0 .489-5.199 57.696 57.696 0 0 0 .101-2.69 69.57 69.57 0 0 0-.627-10.622 69.01 69.01 0 0 0-136.562-1.254c-.063.413-.126.834-.182 1.254a65.514 65.514 0 0 0-.464 4.533c-.031.421-.056.834-.075 1.255a68.934 68.934 0 0 0 24.411 56.304 70.22 70.22 0 0 0 4.666 3.611c.006.007.012.007.018.013a91.72 91.72 0 0 0 1.606 1.11 82.333 82.333 0 0 0 2.596 1.643c.069.037.138.081.207.119.752.451 1.511.884 2.27 1.304h.006a67.615 67.615 0 0 0 8.773 4.038 69.215 69.215 0 0 0 27.735 4.352h.018a68.835 68.835 0 0 0 37.586-13.4c.007 0 .007-.006.013-.006a.907.907 0 0 1 .094-.069c.27-.207.546-.414.809-.615.069-.05.138-.1.207-.157a.259.259 0 0 0 .05-.044c.157-.112.307-.238.464-.357.157-.119.307-.244.464-.37a.61.61 0 0 0 .075-.056c.176-.145.352-.283.527-.427.182-.144.357-.294.527-.439.175-.144.345-.288.52-.439.151-.125.308-.257.458-.395.05-.037.094-.081.144-.125a.419.419 0 0 1 .063-.05c.207-.176.408-.358.608-.54.05-.043.094-.087.145-.131.307-.276.614-.552.915-.84l.213-.195c.069-.063.132-.125.201-.188.088-.088.182-.169.269-.257.226-.213.446-.433.671-.652l.74.627.27.226h.006l.082.075.295.244 4.376 3.7.095.081.075.057.495.42.991.84.991.834.144.12 4.609 3.887.639.54 4.446 3.75 23.013 19.42.803.677 31.497 26.575 8.077 6.816 3.004 2.533a6.34 6.34 0 0 0 2.17 1.202 6.34 6.34 0 0 0 4.851-.407 6.342 6.342 0 0 0 1.939-1.547c.451-.53.81-1.132 1.06-1.781a6.332 6.332 0 0 0-1.423-6.816zM319.837 77.01a51.703 51.703 0 0 1 52.538-16.69 51.7 51.7 0 0 1 38.512 45.98c.031.421.063.834.081 1.255a51.46 51.46 0 0 1-2.715 19.595v.007a51.426 51.426 0 0 1-9.387 16.541c-.088.101-.175.207-.27.308a45.68 45.68 0 0 1-2.596 2.815c-.006.007-.012.019-.018.025-.308.308-.621.621-.935.91a39.44 39.44 0 0 1-1.956 1.774 44.175 44.175 0 0 1-3.066 2.452c-.352.257-.703.508-1.06.759-.351.251-.709.489-1.066.727a47.01 47.01 0 0 1-2.176 1.367c-.364.22-.74.433-1.11.64-.37.213-.746.414-1.123.608-.376.201-.752.395-1.134.583-.759.383-1.524.74-2.302 1.072-.389.176-.777.339-1.166.489-.245.101-.483.201-.728.289a2.377 2.377 0 0 1-.294.113 5.48 5.48 0 0 1-.395.15.917.917 0 0 1-.132.05c-.27.107-.533.201-.809.295-.395.144-.79.276-1.191.402-.402.131-.797.257-1.198.37-.401.125-.809.238-1.21.344-.408.113-.809.22-1.217.314-.432.113-.865.213-1.304.307-.383.088-.759.163-1.141.232-.358.075-.721.138-1.079.201-.501.088-1.003.169-1.511.238-.276.044-.546.082-.821.107-.12.019-.233.031-.345.044-.352.05-.703.087-1.048.119-.094.006-.181.019-.269.025-.383.038-.772.069-1.154.1-.821.057-1.637.094-2.458.113-.414.006-.834.013-1.248.013-.414 0-.828-.007-1.242-.019 0 0 0 .006-.006 0-.006.006-.006.006-.012 0l-.003.002h-.007l-.003-.002a.112.112 0 0 1-.063 0c-.294 0-.589-.013-.878-.032-.213-.006-.432-.012-.652-.031a20.26 20.26 0 0 1-.884-.056c-.094 0-.188-.013-.282-.019a.843.843 0 0 1-.132-.013c-.301-.025-.608-.05-.909-.081-.15-.013-.307-.025-.458-.044-.457-.05-.915-.107-1.367-.169a25.502 25.502 0 0 1-1.536-.232 13.17 13.17 0 0 1-.702-.12c-.307-.05-.615-.106-.922-.169-.32-.063-.64-.125-.96-.201-.257-.056-.52-.112-.777-.175a5.882 5.882 0 0 1-.37-.088 40.966 40.966 0 0 1-1.956-.514 40.51 40.51 0 0 1-2.86-.903c-.213-.069-.42-.144-.633-.226-.213-.069-.42-.15-.633-.232a15.688 15.688 0 0 1-.577-.219c-.314-.119-.621-.245-.929-.37a41.42 41.42 0 0 1-1.874-.815c-.352-.17-.703-.333-1.048-.502-1.36-.658-2.7-1.39-4.019-2.195-.326-.194-.652-.401-.978-.608a37.826 37.826 0 0 1-1.198-.778c-.219-.15-.433-.294-.646-.445a55.218 55.218 0 0 1-1.166-.84 51.701 51.701 0 0 1-3.995-3.267c-.15-.138-.3-.27-.445-.414l-.012-.013a19.51 19.51 0 0 1-.653-.608 27.474 27.474 0 0 1-.971-.959c-.326-.32-.64-.652-.947-.978a26.542 26.542 0 0 1-.909-.997 35.747 35.747 0 0 1-.885-1.016 30.088 30.088 0 0 1-.821-.997 47.429 47.429 0 0 1-2.609-3.549 27.33 27.33 0 0 1-.771-1.179 29.631 29.631 0 0 1-.74-1.204.14.14 0 0 0-.025-.038 48.048 48.048 0 0 1-1.342-2.414 49.962 49.962 0 0 1-1.223-2.508 34.825 34.825 0 0 1-.558-1.273 50.31 50.31 0 0 1-1.016-2.59c-.156-.42-.301-.84-.445-1.267a43.528 43.528 0 0 1-.809-2.696c-.006-.013-.006-.025-.012-.038a31.495 31.495 0 0 1-.333-1.304c-.1-.382-.188-.765-.269-1.154a44.885 44.885 0 0 1-.27-1.304c-.044-.226-.088-.452-.125-.677-.038-.188-.069-.383-.101-.571l-.094-.577a45.982 45.982 0 0 1-.332-2.508 67.245 67.245 0 0 1-.151-1.643c-.031-.37-.05-.746-.068-1.122-.019-.345-.038-.69-.044-1.035a.077.077 0 0 1 0-.056l-.002-.003-.001-.004.001-.003.002-.003c-.007-.006-.007-.006 0-.013a.002.002 0 0 1-.002-.002l-.001-.004.001-.003.002-.003a8.175 8.175 0 0 1-.013-.414 41.565 41.565 0 0 1-.006-2.326 61 61 0 0 1 .056-1.543c0-.113.013-.219.019-.332l.019-.333c.012-.238.031-.476.056-.715a.816.816 0 0 1 .007-.131c.018-.27.043-.539.068-.809.051-.539.113-1.085.182-1.624.038-.27.069-.539.113-.809.025-.188.057-.383.088-.577a9.06 9.06 0 0 1 .094-.583c.044-.257.088-.521.138-.784.025-.157.057-.314.088-.47.119-.627.251-1.254.395-1.882.144-.633.307-1.26.483-1.887.169-.633.357-1.267.558-1.9.094-.32.194-.633.307-.947.207-.633.426-1.26.671-1.881.113-.307.232-.62.364-.928.251-.62.514-1.242.783-1.85.138-.307.276-.614.427-.922.282-.608.577-1.216.897-1.812.307-.608.639-1.204.978-1.793.339-.59.69-1.18 1.06-1.762.169-.289.357-.584.551-.866.377-.576.772-1.153 1.173-1.718a50.374 50.374 0 0 1 2.602-3.355zm-12.033 29.29c-.019.239-.038.477-.05.715.012-.238.031-.476.056-.715a.816.816 0 0 1 .007-.131c-.007.044-.007.088-.013.131zm.778-5.787c-.025.156-.057.313-.082.47.025-.157.057-.314.088-.47h-.006zm15.62 47.75v.007c0 .006.006.006.012.006l-.012-.013z" fill="#3F3D56"/><path opacity=".3" d="M326.008 149.868a51.705 51.705 0 0 1-8.773-69.504 51.7 51.7 0 0 0-9.278 60.217 51.7 51.7 0 0 0 88.04 6.243 51.706 51.706 0 0 1-69.989 3.044z" fill="#000"/></g><defs><clipPath id="a"><path fill="#fff" transform="translate(0 .703)" d="M0 0h570v284.059H0z"/></clipPath></defs></svg>